<?xml version="1.0" encoding="UTF-8"?>
<svg width="60px" height="60px" viewBox="0 0 60 60" version="1.1" xmlns="http://www.w3.org/2000/svg" xmlns:xlink="http://www.w3.org/1999/xlink">
    <!-- Generator: Sketch 50.2 (55047) - http://www.bohemiancoding.com/sketch -->
    <title>np_navigation_860072_000000</title>
    <desc>Created with Sketch.</desc>
    <defs></defs>
    <g id="Page-1" stroke="none" stroke-width="1" fill="none" fill-rule="evenodd">
        <g id="np_navigation_860072_000000" transform="translate(30.000000, 30.000000) scale(1, -1) translate(-30.000000, -30.000000) " fill="#000000" fill-rule="nonzero">
            <path d="M29.9522892,0.566428571 C13.4472289,0.566428571 0.0202409639,13.8335714 0.0202409639,30.1421429 C0.0202409639,46.4507143 13.4472289,59.7178571 29.9522892,59.7178571 C46.4573494,59.7178571 59.8872289,46.4507143 59.8872289,30.1421429 C59.8872289,13.8335714 46.4573494,0.566428571 29.9522892,0.566428571 Z M29.9522892,56.1442857 C15.4409639,56.1442857 3.6346988,44.4785714 3.6346988,30.14 C3.6346988,15.8014286 15.4409639,4.13571429 29.9522892,4.13571429 C44.466506,4.13571429 56.2727711,15.8014286 56.2727711,30.14 C56.2727711,44.4785714 44.466506,56.1442857 29.9522892,56.1442857 Z" id="Shape"></path>
            <path d="M38.2626506,17.6421429 L29.9522892,21.0294286 L21.6419277,17.6421429 C20.9839807,17.3742857 20.2244096,17.5137929 19.7076145,17.9992857 C19.1908627,18.4847786 19.0101398,19.2241429 19.2473349,19.8882143 L28.246612,45.0389286 C28.2607308,45.0752007 28.277674,45.1086829 28.2946164,45.1449571 C28.3087352,45.1812293 28.3228547,45.2147114 28.3426207,45.2481929 C28.3793299,45.3235286 28.4216906,45.3904929 28.4696906,45.4574571 C28.4838101,45.4769886 28.4951053,45.49931 28.5092241,45.5160507 C28.5741716,45.5997579 28.6447663,45.6778793 28.7210096,45.7504221 C28.7407757,45.7671636 28.763366,45.7839043 28.7831328,45.7978557 C28.8452566,45.8508686 28.9102027,45.8982986 28.9779737,45.9401557 C29.0090349,45.9596871 29.0400969,45.9792186 29.0711617,45.9959593 C29.1417564,46.0350221 29.2151761,46.0685021 29.2914195,46.099195 C29.3111863,46.1075657 29.3281287,46.1187264 29.3478954,46.1243071 C29.356367,46.1270971 29.3676622,46.1298871 29.3761337,46.1326779 C29.4410805,46.1549993 29.5088494,46.17174 29.5766205,46.1829007 C29.6048588,46.1884807 29.6330971,46.1968514 29.6613361,46.2024321 C29.7573434,46.2163829 29.8533506,46.2275436 29.9493651,46.2275436 C30.0481988,46.2275436 30.144206,46.2191729 30.237394,46.2024321 C30.2656323,46.1968514 30.2938699,46.1884807 30.3221096,46.1829007 C30.3898807,46.16895 30.4576518,46.1549993 30.5225964,46.1326779 C30.531068,46.1298871 30.5395395,46.1270971 30.5508347,46.1243071 C30.5706007,46.1159364 30.5875439,46.1075657 30.6073106,46.099195 C30.683554,46.0712936 30.7569708,46.0350214 30.8303877,45.9959593 C30.8614489,45.9792186 30.8953345,45.9596871 30.9235757,45.9401557 C30.9913467,45.8983029 31.0562913,45.8480771 31.1184166,45.7978557 C31.1381834,45.7811143 31.1607737,45.7671636 31.1805398,45.7504221 C31.2567831,45.6778793 31.3273807,45.5997507 31.3951518,45.5160507 C31.4092706,45.4965193 31.4205658,45.4769886 31.4346846,45.4574571 C31.4798653,45.3904929 31.525046,45.3235286 31.5617545,45.2481929 C31.5786976,45.2147107 31.5928164,45.1784386 31.6097588,45.1449571 C31.6238783,45.108685 31.6436451,45.0752029 31.6577639,45.0389286 L40.657041,19.8882143 C40.8942361,19.22415 40.7135161,18.4819286 40.1967614,17.9992857 C39.6800096,17.5137929 38.9232434,17.3742857 38.2624482,17.6421429 L38.2626506,17.6421429 Z M29.9522892,39.09 L24.0053494,22.4714286 L29.2632289,24.6142857 C29.2858193,24.6226557 29.3112333,24.6282364 29.3338236,24.6338164 C29.4213586,24.6645086 29.5089007,24.6952007 29.6020814,24.711945 C29.6557337,24.7231057 29.7093875,24.7231057 29.7658598,24.7286864 C29.8279836,24.7342664 29.8901104,24.7454271 29.9550549,24.7454271 C30.0171788,24.7454271 30.0793055,24.7342664 30.1442501,24.7286864 C30.1979024,24.7231057 30.2515561,24.7231057 30.3080284,24.711945 C30.3983899,24.6952043 30.4859248,24.6645121 30.5706405,24.6338164 C30.5960552,24.6254457 30.6214692,24.6226557 30.6468839,24.611495 L35.9047634,22.4686379 L29.9522892,39.09 Z" id="Shape"></path>
        </g>
    </g>
</svg>